
  <svg width='840px'
       height='381px'
       viewBox='0 0 840 381'>

    
    <defs>
      <linearGradient id="DCS">
        <stop offset="0%" stop-color="black" stop-opacity="0"/>
        <stop offset="40%" stop-color="black" stop-opacity="0.1"/>
        <stop offset="60%" stop-color="black" stop-opacity="0.1"/>
        <stop offset="100%" stop-color="black" stop-opacity="0"/>
      </linearGradient>
      <linearGradient id="SPACE" x1="0%" x2="0%" y1="0%" y2="100%">
        <stop offset="0%" stop-color="black" stop-opacity="0.1"/>
        <stop offset="20%" stop-color="black" stop-opacity="0.0"/>
        <stop offset="40%" stop-color="black" stop-opacity="0.0"/>
        <stop offset="100%" stop-color="black" stop-opacity="0.1"/>
      </linearGradient>
      <radialGradient id="DSA">
        <stop offset="0%" stop-color="black" stop-opacity="0.1"/>
        <stop offset="10%" stop-color="black" stop-opacity="0.1"/>
        <stop offset="100%" stop-color="black" stop-opacity="0"/>
      </radialGradient>
      <radialGradient id="SA" href="#DSA" />
    </defs>

    <g transform='translate(10,10)'>
      <rect width="820" height="361"
            stroke="#ddd" stroke-width="1" fill="#222222" rx="6"/>
      <g transform='translate(5,5)'>
        
  <g class='  keycap' data-key="Backquote">
    {/*OuterFill*/}
    <rect x="1" y="83"
          width="52" height="52"
          rx="5" fill="#08090a"/>
    
      {/*Innner Border*/}
      <rect x="7" y="85"
            width="40" height="40"
            rx="5" fill="#2f2f2f" class="inner border"/>
      
      {/*Inner Fill*/}
        <rect x="7" y="85"
            width="40" height="40"
            rx="5" fill="#2f2f2f"/>
    
            <rect x="7" y="85"
              width="40" height="40"
              rx="5" fill="url(#DCS)"/>

    <text kerning="-2" x="27" y="105" fill="#ffff" font-size="12">~</text>
    
  </g>

  <g class='  keycap' data-key="Digit1">

    {/*OuterFill*/}
    <rect x="55" y="82"
          width="52" height="52"
          rx="5" fill="#08090a"/>
    

    
      {/*Innner Border*/}
      <rect x="61" y="85"
            width="40" height="40"
            rx="5" fill="#2f2f2f" class="inner border"/>
      
      {/*Inner Fill*/}
      <rect x="61" y="85"
            width="40" height="40"
            rx="5" fill="#2f2f2f"/>
      
      
        
        
        <rect x="61" y="85"
              width="40" height="40"
              rx="5" fill="url(#DCS)"/>
     

      <text kerning="-2" x="81" y="105" fill="#fff" font-size="12">1</text>

     
   
  </g>

  <g class='  keycap' data-key="Digit2">

    {/*OuterFill*/}
    <rect x="109" y="82"
          width="52" height="52"
          rx="5" fill="#08090a"/>
    

    
      {/*Innner Border*/}
      <rect x="115" y="85"
            width="40" height="40"
            rx="5" fill="#2f2f2f" class="inner border"/>
      
      {/*Inner Fill*/}
      <rect x="115" y="85"
            width="40" height="40"
            rx="5" fill="#2f2f2f"/>
      
      
        
        
        <rect x="115" y="85"
              width="40" height="40"
              rx="5" fill="url(#DCS)"/>
     

      <text kerning="-2" x="135" y="105" fill="#fff" font-size="12">2</text>

     
   
  </g>

  <g class='  keycap' data-key="Digit3">

    {/*OuterFill*/}
    <rect x="163" y="82"
          width="52" height="52"
          rx="5" fill="#08090a"/>
    

    
      {/*Innner Border*/}
      <rect x="169" y="85"
            width="40" height="40"
            rx="5" fill="#2f2f2f" class="inner border"/>
      
      {/*Inner Fill*/}
      <rect x="169" y="85"
            width="40" height="40"
            rx="5" fill="#2f2f2f"/>
      
      
        
        
        <rect x="169" y="85"
              width="40" height="40"
              rx="5" fill="url(#DCS)"/>
     

      <text kerning="-2" x="189" y="105" fill="#fff" font-size="12">3</text>

     
   
  </g>

  <g class='  keycap' data-key="Digit4">

    {/*OuterFill*/}
    <rect x="217" y="82"
          width="52" height="52"
          rx="5" fill="#08090a"/>
    

    
      {/*Innner Border*/}
      <rect x="223" y="85"
            width="40" height="40"
            rx="5" fill="#2f2f2f" class="inner border"/>
      
      {/*Inner Fill*/}
      <rect x="223" y="85"
            width="40" height="40"
            rx="5" fill="#2f2f2f"/>
      
      
        
        
        <rect x="223" y="85"
              width="40" height="40"
              rx="5" fill="url(#DCS)"/>
     

      <text kerning="-2" x="243" y="105" fill="#fff" font-size="12">4</text>

     
   
  </g>

  <g class='  keycap' data-key="Digit5">

    {/*OuterFill*/}
    <rect x="271" y="82"
          width="52" height="52"
          rx="5" fill="#08090a"/>
    

    
      {/*Innner Border*/}
      <rect x="277" y="85"
            width="40" height="40"
            rx="5" fill="#2f2f2f" class="inner border"/>
      
      {/*Inner Fill*/}
      <rect x="277" y="85"
            width="40" height="40"
            rx="5" fill="#2f2f2f"/>
      
      
        
        
        <rect x="277" y="85"
              width="40" height="40"
              rx="5" fill="url(#DCS)"/>
     

      <text kerning="-2" x="297" y="105" fill="#fff" font-size="12">5</text>

     
   
  </g>

  <g class='  keycap' data-key="Digit6">

    {/*OuterFill*/}
    <rect x="325" y="82"
          width="52" height="52"
          rx="5" fill="#08090a"/>
    

    
      {/*Innner Border*/}
      <rect x="331" y="85"
            width="40" height="40"
            rx="5" fill="#2f2f2f" class="inner border"/>
      
      {/*Inner Fill*/}
      <rect x="331" y="85"
            width="40" height="40"
            rx="5" fill="#2f2f2f"/>
      
      
        
        
        <rect x="331" y="85"
              width="40" height="40"
              rx="5" fill="url(#DCS)"/>
     

      <text kerning="-2" x="351" y="105" fill="#fff" font-size="12">6</text>

     
   
  </g>

  <g class='  keycap' data-key="Digit7">

    {/*OuterFill*/}
    <rect x="379" y="82"
          width="52" height="52"
          rx="5" fill="#08090a"/>
    

    
      {/*Innner Border*/}
      <rect x="385" y="85"
            width="40" height="40"
            rx="5" fill="#2f2f2f" class="inner border"/>
      
      {/*Inner Fill*/}
      <rect x="385" y="85"
            width="40" height="40"
            rx="5" fill="#2f2f2f"/>
      
      
        
        
        <rect x="385" y="85"
              width="40" height="40"
              rx="5" fill="url(#DCS)"/>
     

      <text kerning="-2" x="405" y="105" fill="#fff" font-size="12">7</text>

     
   
  </g>

  <g class='  keycap' data-key="Digit8">

    {/*OuterFill*/}
    <rect x="433" y="82"
          width="52" height="52"
          rx="5" fill="#08090a"/>
    

    
      {/*Innner Border*/}
      <rect x="439" y="85"
            width="40" height="40"
            rx="5" fill="#2f2f2f" class="inner border"/>
      
      {/*Inner Fill*/}
      <rect x="439" y="85"
            width="40" height="40"
            rx="5" fill="#2f2f2f"/>
      
      
        
        
        <rect x="439" y="85"
              width="40" height="40"
              rx="5" fill="url(#DCS)"/>
     

      <text kerning="-2" x="459" y="105" fill="#fff" font-size="12">8</text>

     
   
  </g>

  <g class='  keycap' data-key="Digit9">

    {/*OuterFill*/}
    <rect x="487" y="82"
          width="52" height="52"
          rx="5" fill="#08090a"/>
    

    
      {/*Innner Border*/}
      <rect x="493" y="85"
            width="40" height="40"
            rx="5" fill="#2f2f2f" class="inner border"/>
      
      {/*Inner Fill*/}
      <rect x="493" y="85"
            width="40" height="40"
            rx="5" fill="#2f2f2f"/>
      
      
        
        
        <rect x="493" y="85"
              width="40" height="40"
              rx="5" fill="url(#DCS)"/>
     

      <text kerning="-2" x="513" y="105" fill="#fff" font-size="12">9</text>

     
   
  </g>

  <g class='  keycap' data-key="Digit0">

    {/*OuterFill*/}
    <rect x="541" y="82"
          width="52" height="52"
          rx="5" fill="#08090a"/>
    

    
      {/*Innner Border*/}
      <rect x="547" y="85"
            width="40" height="40"
            rx="5" fill="#2f2f2f" class="inner border"/>
      
      {/*Inner Fill*/}
      <rect x="547" y="85"
            width="40" height="40"
            rx="5" fill="#2f2f2f"/>
      
      
        
        
        <rect x="547" y="85"
              width="40" height="40"
              rx="5" fill="url(#DCS)"/>
     

      <text kerning="-2" x="567" y="105" fill="#fff" font-size="12">0</text>

     
   
  </g>

  <g class='  keycap' data-key="Minus">

    {/*OuterFill*/}
    <rect x="595" y="82"
          width="52" height="52"
          rx="5" fill="#08090a"/>
    

    
      {/*Innner Border*/}
      <rect x="601" y="85"
            width="40" height="40"
            rx="5" fill="#2f2f2f" class="inner border"/>
      
      {/*Inner Fill*/}
      <rect x="601" y="85"
            width="40" height="40"
            rx="5" fill="#2f2f2f"/>
      
      
        
        
        <rect x="601" y="85"
              width="40" height="40"
              rx="5" fill="url(#DCS)"/>
     

      <text kerning="-2" x="621" y="105" fill="#fff" font-size="12">-</text>

     
   
  </g>

  <g class='  keycap' data-key="Equal">

    {/*OuterFill*/}
    <rect x="649" y="82"
          width="52" height="52"
          rx="5" fill="#08090a"/>
    

    
      {/*Innner Border*/}
      <rect x="655" y="85"
            width="40" height="40"
            rx="5" fill="#2f2f2f" class="inner border"/>
      
      {/*Inner Fill*/}
      <rect x="655" y="85"
            width="40" height="40"
            rx="5" fill="#2f2f2f"/>
      
      
        
        
        <rect x="655" y="85"
              width="40" height="40"
              rx="5" fill="url(#DCS)"/>
     

      <text kerning="-2" x="675" y="105" fill="#fff" font-size="12">=</text>

     
   
  </g>

  <g class='  keycap' data-key="Backspace">

    {/*OuterFill*/}
    <rect x="703" y="82"
          width="106" height="52"
          rx="5" fill="#08090a"/>
    

    
      {/*Innner Border*/}
      <rect x="709" y="85"
            width="94" height="40"
            rx="5" fill="#2f2f2f" class="inner border"/>
      
      {/*Inner Fill*/}
      <rect x="709" y="85"
            width="94" height="40"
            rx="5" fill="#2f2f2f"/>
      
      
        
        
        <rect x="709" y="85"
              width="94" height="40"
              rx="5" fill="url(#DCS)"/>
     

      <text kerning="-2" x="729" y="105" fill="#fff" font-size="12">Backspace</text>

     
   
  </g>

  <g class='  keycap' data-key="Tab">

    {/*OuterFill*/}
    <rect x="1" y="136"
          width="79" height="52"
          rx="5" fill="#08090a"/>
    

    
      {/*Innner Border*/}
      <rect x="7" y="139"
            width="67" height="40"
            rx="5" fill="#2f2f2f" class="inner border"/>
      
      {/*Inner Fill*/}
      <rect x="7" y="139"
            width="67" height="40"
            rx="5" fill="#2f2f2f"/>
      
      
        
        
        <rect x="7" y="139"
              width="67" height="40"
              rx="5" fill="url(#DCS)"/>
     

      <text kerning="-2" x="40.5" y="159" fill="#fff" font-size="12">Tab</text>

     
   
  </g>

  <g class='  keycap' data-key="KeyQ">

    {/*OuterFill*/}
    <rect x="82" y="136"
          width="52" height="52"
          rx="5" fill="#08090a"/>
    

    
      {/*Innner Border*/}
      <rect x="88" y="139"
            width="40" height="40"
            rx="5" fill="#2f2f2f" class="inner border"/>
      
      {/*Inner Fill*/}
      <rect x="88" y="139"
            width="40" height="40"
            rx="5" fill="#2f2f2f"/>
      
      
        
        
        <rect x="88" y="139"
              width="40" height="40"
              rx="5" fill="url(#DCS)"/>
     

      <text kerning="-2" x="108" y="159" fill="#fff" font-size="12">Q</text>

     
   
  </g>

  <g class='  keycap' data-key="KeyW">

    {/*OuterFill*/}
    <rect x="136" y="136"
          width="52" height="52"
          rx="5" fill="#08090a"/>
    

    
      {/*Innner Border*/}
      <rect x="142" y="139"
            width="40" height="40"
            rx="5" fill="#2f2f2f" class="inner border"/>
      
      {/*Inner Fill*/}
      <rect x="142" y="139"
            width="40" height="40"
            rx="5" fill="#2f2f2f"/>
      
      
        
        
        <rect x="142" y="139"
              width="40" height="40"
              rx="5" fill="url(#DCS)"/>
     

      <text kerning="-2" x="162" y="159" fill="#fff" font-size="12">W</text>

     
   
  </g>

  <g class='  keycap' data-key="KeyE">

    {/*OuterFill*/}
    <rect x="190" y="136"
          width="52" height="52"
          rx="5" fill="#08090a"/>
    

    
      {/*Innner Border*/}
      <rect x="196" y="139"
            width="40" height="40"
            rx="5" fill="#2f2f2f" class="inner border"/>
      
      {/*Inner Fill*/}
      <rect x="196" y="139"
            width="40" height="40"
            rx="5" fill="#2f2f2f"/>
      
      
        
        
        <rect x="196" y="139"
              width="40" height="40"
              rx="5" fill="url(#DCS)"/>
     

      <text kerning="-2" x="216" y="159" fill="#fff" font-size="12">E</text>

     
   
  </g>

  <g class='  keycap' data-key="KeyR">

    {/*OuterFill*/}
    <rect x="244" y="136"
          width="52" height="52"
          rx="5" fill="#08090a"/>
    

    
      {/*Innner Border*/}
      <rect x="250" y="139"
            width="40" height="40"
            rx="5" fill="#2f2f2f" class="inner border"/>
      
      {/*Inner Fill*/}
      <rect x="250" y="139"
            width="40" height="40"
            rx="5" fill="#2f2f2f"/>
      
      
        
        
        <rect x="250" y="139"
              width="40" height="40"
              rx="5" fill="url(#DCS)"/>
     

      <text kerning="-2" x="270" y="159" fill="#fff" font-size="12">R</text>

     
   
  </g>

  <g class='  keycap' data-key="KeyT">

    {/*OuterFill*/}
    <rect x="298" y="136"
          width="52" height="52"
          rx="5" fill="#08090a"/>
    

    
      {/*Innner Border*/}
      <rect x="304" y="139"
            width="40" height="40"
            rx="5" fill="#2f2f2f" class="inner border"/>
      
      {/*Inner Fill*/}
      <rect x="304" y="139"
            width="40" height="40"
            rx="5" fill="#2f2f2f"/>
      
      
        
        
        <rect x="304" y="139"
              width="40" height="40"
              rx="5" fill="url(#DCS)"/>
     

      <text kerning="-2" x="324" y="159" fill="#fff" font-size="12">T</text>

     
   
  </g>

  <g class='  keycap' data-key="KeyY">

    {/*OuterFill*/}
    <rect x="352" y="136"
          width="52" height="52"
          rx="5" fill="#08090a"/>
    

    
      {/*Innner Border*/}
      <rect x="358" y="139"
            width="40" height="40"
            rx="5" fill="#2f2f2f" class="inner border"/>
      
      {/*Inner Fill*/}
      <rect x="358" y="139"
            width="40" height="40"
            rx="5" fill="#2f2f2f"/>
      
      
        
        
        <rect x="358" y="139"
              width="40" height="40"
              rx="5" fill="url(#DCS)"/>
     

      <text kerning="-2" x="378" y="159" fill="#fff" font-size="12">Y</text>

     
   
  </g>

  <g class='  keycap' data-key="KeyU">

    {/*OuterFill*/}
    <rect x="406" y="136"
          width="52" height="52"
          rx="5" fill="#08090a"/>
    

    
      {/*Innner Border*/}
      <rect x="412" y="139"
            width="40" height="40"
            rx="5" fill="#2f2f2f" class="inner border"/>
      
      {/*Inner Fill*/}
      <rect x="412" y="139"
            width="40" height="40"
            rx="5" fill="#2f2f2f"/>
      
      
        
        
        <rect x="412" y="139"
              width="40" height="40"
              rx="5" fill="url(#DCS)"/>
     

      <text kerning="-2" x="432" y="159" fill="#fff" font-size="12">U</text>

     
   
  </g>

  <g class='  keycap' data-key="KeyI">

    {/*OuterFill*/}
    <rect x="460" y="136"
          width="52" height="52"
          rx="5" fill="#08090a"/>
    

    
      {/*Innner Border*/}
      <rect x="466" y="139"
            width="40" height="40"
            rx="5" fill="#2f2f2f" class="inner border"/>
      
      {/*Inner Fill*/}
      <rect x="466" y="139"
            width="40" height="40"
            rx="5" fill="#2f2f2f"/>
      
      
        
        
        <rect x="466" y="139"
              width="40" height="40"
              rx="5" fill="url(#DCS)"/>
     

      <text kerning="-2" x="486" y="159" fill="#fff" font-size="12">I</text>

     
   
  </g>

  <g class='  keycap' data-key="KeyO">

    {/*OuterFill*/}
    <rect x="514" y="136"
          width="52" height="52"
          rx="5" fill="#08090a"/>
    

    
      {/*Innner Border*/}
      <rect x="520" y="139"
            width="40" height="40"
            rx="5" fill="#2f2f2f" class="inner border"/>
      
      {/*Inner Fill*/}
      <rect x="520" y="139"
            width="40" height="40"
            rx="5" fill="#2f2f2f"/>
      
      
        
        
        <rect x="520" y="139"
              width="40" height="40"
              rx="5" fill="url(#DCS)"/>
     

      <text kerning="-2" x="540" y="159" fill="#fff" font-size="12">O</text>

     
   
  </g>

  <g class='  keycap' data-key="KeyP">

    {/*OuterFill*/}
    <rect x="568" y="136"
          width="52" height="52"
          rx="5" fill="#08090a"/>
    

    
      {/*Innner Border*/}
      <rect x="574" y="139"
            width="40" height="40"
            rx="5" fill="#2f2f2f" class="inner border"/>
      
      {/*Inner Fill*/}
      <rect x="574" y="139"
            width="40" height="40"
            rx="5" fill="#2f2f2f"/>
      
      
        
        
        <rect x="574" y="139"
              width="40" height="40"
              rx="5" fill="url(#DCS)"/>
     

      <text kerning="-2" x="594" y="159" fill="#fff" font-size="12">P</text>

     
   
  </g>

  <g class='  keycap' data-key="BracketLeft">

    {/*OuterFill*/}
    <rect x="622" y="136"
          width="52" height="52"
          rx="5" fill="#08090a"/>
    

    
      {/*Innner Border*/}
      <rect x="628" y="139"
            width="40" height="40"
            rx="5" fill="#2f2f2f" class="inner border"/>
      
      {/*Inner Fill*/}
      <rect x="628" y="139"
            width="40" height="40"
            rx="5" fill="#2f2f2f"/>
      
      
        
        
        <rect x="628" y="139"
              width="40" height="40"
              rx="5" fill="url(#DCS)"/>
     

      <text kerning="-2" x="648" y="159" fill="#fff" font-size="12">[</text>

     
   
  </g>

  <g class='  keycap' data-key="BracketRight">

    {/*OuterFill*/}
    <rect x="676" y="136"
          width="52" height="52"
          rx="5" fill="#08090a"/>
    

    
      {/*Innner Border*/}
      <rect x="682" y="139"
            width="40" height="40"
            rx="5" fill="#2f2f2f" class="inner border"/>
      
      {/*Inner Fill*/}
      <rect x="682" y="139"
            width="40" height="40"
            rx="5" fill="#2f2f2f"/>
      
      
        
        
        <rect x="682" y="139"
              width="40" height="40"
              rx="5" fill="url(#DCS)"/>
     

      <text kerning="-2" x="702" y="159" fill="#fff" font-size="12">]</text>

     
   
  </g>

  <g class='  keycap' data-key="Backslash">

    {/*OuterFill*/}
    <rect x="730" y="136"
          width="79" height="52"
          rx="5" fill="#08090a"/>
    

    
      {/*Innner Border*/}
      <rect x="736" y="139"
            width="67" height="40"
            rx="5" fill="#2f2f2f" class="inner border"/>
      
      {/*Inner Fill*/}
      <rect x="736" y="139"
            width="67" height="40"
            rx="5" fill="#2f2f2f"/>
      
      
        
        
        <rect x="736" y="139"
              width="67" height="40"
              rx="5" fill="url(#DCS)"/>
     

      <text kerning="-2" x="756" y="159" fill="#fff" font-size="12">\</text>

     
   
  </g>

  <g class='  keycap' data-key="Capslock">

    {/*OuterFill*/}
    <rect x="1" y="190"
          width="92.5" height="52"
          rx="5" fill="#08090a"/>
    

    
      {/*Innner Border*/}
      <rect x="7" y="193"
            width="80.5" height="40"
            rx="5" fill="#2f2f2f" class="inner border"/>
      
      {/*Inner Fill*/}
      <rect x="7" y="193"
            width="80.5" height="40"
            rx="5" fill="#2f2f2f"/>
      
      
        
        
        <rect x="7" y="193"
              width="80.5" height="40"
              rx="5" fill="url(#DCS)"/>
     

      <text kerning="-2" x="27.5" y="213" fill="#fff" font-size="12">Capslock</text>

     
   
  </g>

  <g class='  keycap' data-key="KeyA">

    {/*OuterFill*/}
    <rect x="95.5" y="190"
          width="52" height="52"
          rx="5" fill="#08090a"/>
    

    
      {/*Innner Border*/}
      <rect x="101.5" y="193"
            width="40" height="40"
            rx="5" fill="#2f2f2f" class="inner border"/>
      
      {/*Inner Fill*/}
      <rect x="101.5" y="193"
            width="40" height="40"
            rx="5" fill="#2f2f2f"/>
      
      
        
        
        <rect x="101.5" y="193"
              width="40" height="40"
              rx="5" fill="url(#DCS)"/>
     

      <text kerning="-2" x="121.5" y="213" fill="#fff" font-size="12">A</text>

     
   
  </g>

  <g class='  keycap' data-key="KeyS">

    {/*OuterFill*/}
    <rect x="149.5" y="190"
          width="52" height="52"
          rx="5" fill="#08090a"/>
    

    
      {/*Innner Border*/}
      <rect x="155.5" y="193"
            width="40" height="40"
            rx="5" fill="#2f2f2f" class="inner border"/>
      
      {/*Inner Fill*/}
      <rect x="155.5" y="193"
            width="40" height="40"
            rx="5" fill="#2f2f2f"/>
      
      
        
        
        <rect x="155.5" y="193"
              width="40" height="40"
              rx="5" fill="url(#DCS)"/>
     

      <text kerning="-2" x="175.5" y="213" fill="#fff" font-size="12">S</text>

     
   
  </g>

  <g class='  keycap' data-key="KeyD">

    {/*OuterFill*/}
    <rect x="203.5" y="190"
          width="52" height="52"
          rx="5" fill="#08090a"/>
    

    
      {/*Innner Border*/}
      <rect x="209.5" y="193"
            width="40" height="40"
            rx="5" fill="#2f2f2f" class="inner border"/>
      
      {/*Inner Fill*/}
      <rect x="209.5" y="193"
            width="40" height="40"
            rx="5" fill="#2f2f2f"/>
      
      
        
        
        <rect x="209.5" y="193"
              width="40" height="40"
              rx="5" fill="url(#DCS)"/>
     

      <text kerning="-2" x="229.5" y="213" fill="#fff" font-size="12">D</text>
 
  </g>

  <g class='  keycap' data-key="KeyF">

    {/*OuterFill*/}
    <rect x="257.5" y="190"
          width="52" height="52"
          rx="5" fill="#08090a"/>
 
      {/*Innner Border*/}
      <rect x="263.5" y="193"
            width="40" height="40"
            rx="5" fill="#2f2f2f" class="inner border"/>
      
      {/*Inner Fill*/}
      <rect x="263.5" y="193"
            width="40" height="40"
            rx="5" fill="#2f2f2f"/>
 
        <rect x="263.5" y="193"
              width="40" height="40"
              rx="5" fill="url(#DCS)"/>
     

      <text kerning="-2" x="283.5" y="213" fill="#fff" font-size="12">F</text>
 
  </g>

  <g class='  keycap' data-key="KeyG">

    {/*OuterFill*/}
    <rect x="311.5" y="190"
          width="52" height="52"
          rx="5" fill="#08090a"/>
 
      {/*Innner Border*/}
      <rect x="317.5" y="193"
            width="40" height="40"
            rx="5" fill="#2f2f2f" class="inner border"/>
      
      {/*Inner Fill*/}
      <rect x="317.5" y="193"
            width="40" height="40"
            rx="5" fill="#2f2f2f"/>
   
        <rect x="317.5" y="193"
              width="40" height="40"
              rx="5" fill="url(#DCS)"/>
 
      <text kerning="-2" x="337.5" y="213" fill="#fff" font-size="12">G</text>
 
  </g>

  <g class='  keycap' data-key="KeyH">

    {/*OuterFill*/}
    <rect x="365.5" y="190"
          width="52" height="52"
          rx="5" fill="#08090a"/>
 
      {/*Innner Border*/}
      <rect x="371.5" y="193"
            width="40" height="40"
            rx="5" fill="#2f2f2f" class="inner border"/>
      
      {/*Inner Fill*/}
      <rect x="371.5" y="193"
            width="40" height="40"
            rx="5" fill="#2f2f2f"/>
   
        <rect x="371.5" y="193"
              width="40" height="40"
              rx="5" fill="url(#DCS)"/>
     

      <text kerning="-2" x="391.5" y="213" fill="#fff" font-size="12">H</text>
 
  </g>

  <g class='  keycap' data-key="KeyJ">

    {/*OuterFill*/}
    <rect x="419.5" y="190"
          width="52" height="52"
          rx="5" fill="#08090a"/>
 
      {/*Innner Border*/}
      <rect x="425.5" y="193"
            width="40" height="40"
            rx="5" fill="#2f2f2f" class="inner border"/>
      
      {/*Inner Fill*/}
      <rect x="425.5" y="193"
            width="40" height="40"
            rx="5" fill="#2f2f2f"/>
 
        <rect x="425.5" y="193"
              width="40" height="40"
              rx="5" fill="url(#DCS)"/>
     

      <text kerning="-2" x="445.5" y="213" fill="#fff" font-size="12">J</text>
 
  </g>

  <g class='  keycap' data-key="KeyK">

    {/*OuterFill*/}
    <rect x="473.5" y="190"
          width="52" height="52"
          rx="5" fill="#08090a"/>
 
      {/*Innner Border*/}
      <rect x="479.5" y="193"
            width="40" height="40"
            rx="5" fill="#2f2f2f" class="inner border"/>
      
      {/*Inner Fill*/}
      <rect x="479.5" y="193"
            width="40" height="40"
            rx="5" fill="#2f2f2f"/>
 
        <rect x="479.5" y="193"
              width="40" height="40"
              rx="5" fill="url(#DCS)"/>
     

      <text kerning="-2" x="499.5" y="213" fill="#fff" font-size="12">K</text>
 
  </g>

  <g class='  keycap' data-key="KeyL">

    {/*OuterFill*/}
    <rect x="527.5" y="190"
          width="52" height="52"
          rx="5" fill="#08090a"/>
 
      {/*Innner Border*/}
      <rect x="533.5" y="193"
            width="40" height="40"
            rx="5" fill="#2f2f2f" class="inner border"/>
      
      {/*Inner Fill*/}
      <rect x="533.5" y="193"
            width="40" height="40"
            rx="5" fill="#2f2f2f"/>
 
        <rect x="533.5" y="193"
              width="40" height="40"
              rx="5" fill="url(#DCS)"/>
     

      <text kerning="-2" x="553.5" y="213" fill="#fff" font-size="12">L</text>

 
  </g>

  <g class='  keycap' data-key="Semicolon">

    {/*OuterFill*/}
    <rect x="581.5" y="190"
          width="52" height="52"
          rx="5" fill="#08090a"/>
 
      {/*Innner Border*/}
      <rect x="587.5" y="193"
            width="40" height="40"
            rx="5" fill="#2f2f2f" class="inner border"/>
      
      {/*Inner Fill*/}
      <rect x="587.5" y="193"
            width="40" height="40"
            rx="5" fill="#2f2f2f"/>
 
        <rect x="587.5" y="193"
              width="40" height="40"
              rx="5" fill="url(#DCS)"/>
     

      <text kerning="-2" x="607.5" y="213" fill="#fff" font-size="12">;</text>
 
  </g>

  <g class='  keycap' data-key="Quotes">

    {/*OuterFill*/}
    <rect x="635.5" y="190"
          width="52" height="52"
          rx="5" fill="#08090a"/>
  
      {/*Innner Border*/}
      <rect x="641.5" y="193"
            width="40" height="40"
            rx="5" fill="#2f2f2f" class="inner border"/>
      
      {/*Inner Fill*/}
      <rect x="641.5" y="193"
            width="40" height="40"
            rx="5" fill="#2f2f2f"/>
 
        <rect x="641.5" y="193"
              width="40" height="40"
              rx="5" fill="url(#DCS)"/>
     

      <text kerning="-2" x="661.5" y="213" fill="#fff" font-size="12">'</text>
 
  </g>

  <g class='  keycap' data-key="Enter">

    {/*OuterFill*/}
    <rect x="689.5" y="190"
          width="119.5" height="52"
          rx="5" fill="#08090a"/>
  
      {/*Innner Border*/}
      <rect x="695.5" y="193"
            width="107.5" height="40"
            rx="5" fill="#2f2f2f" class="inner border"/>
      
      {/*Inner Fill*/}
      <rect x="695.5" y="193"
            width="107.5" height="40"
            rx="5" fill="#2f2f2f"/>
  
        <rect x="695.5" y="193"
              width="107.5" height="40"
              rx="5" fill="url(#DCS)"/>
     

      <text kerning="-2" x="715.5" y="213" fill="#fff" font-size="12">Enter</text>
 
  </g>

  <g class='  keycap' data-key="ShiftLeft">

    {/*OuterFill*/}
    <rect x="1" y="244"
          width="119.5" height="52"
          rx="5" fill="#08090a"/>
 
      {/*Innner Border*/}
      <rect x="7" y="247"
            width="107.5" height="40"
            rx="5" fill="#2f2f2f" class="inner border"/>
      
      {/*Inner Fill*/}
      <rect x="7" y="247"
            width="107.5" height="40"
            rx="5" fill="#2f2f2f"/>
 
        <rect x="7" y="247"
              width="107.5" height="40"
              rx="5" fill="url(#DCS)"/>
     

      <text kerning="-2" x="27.5" y="267" fill="#fff" font-size="12">Shift</text>
 
  </g>

  <g class='  keycap' data-key="KeyZ">

    {/*OuterFill*/}
    <rect x="122.5" y="244"
          width="52" height="52"
          rx="5" fill="#08090a"/>
      
      {/*Innner Border*/}
      <rect x="128.5" y="247"
            width="40" height="40"
            rx="5" fill="#2f2f2f" class="inner border"/>
      
      {/*Inner Fill*/}
      <rect x="128.5" y="247"
            width="40" height="40"
            rx="5" fill="#2f2f2f"/>
 
        <rect x="128.5" y="247"
              width="40" height="40"
              rx="5" fill="url(#DCS)"/>
     

      <text kerning="-2" x="148.5" y="267" fill="#fff" font-size="12">Z</text>

 
  </g>

  <g class='  keycap' data-key="KeyX">

    {/*OuterFill*/}
    <rect x="176.5" y="244"
          width="52" height="52"
          rx="5" fill="#08090a"/>
 
      {/*Innner Border*/}
      <rect x="182.5" y="247"
            width="40" height="40"
            rx="5" fill="#2f2f2f" class="inner border"/>
      
      {/*Inner Fill*/}
      <rect x="182.5" y="247"
            width="40" height="40"
            rx="5" fill="#2f2f2f"/>
      
   
        <rect x="182.5" y="247"
              width="40" height="40"
              rx="5" fill="url(#DCS)"/>
     

      <text kerning="-2" x="202.5" y="267" fill="#fff" font-size="12">X</text>

  </g>

  <g class='  keycap' data-key="KeyC">

    {/*OuterFill*/}
    <rect x="230.5" y="244"
          width="52" height="52"
          rx="5" fill="#08090a"/>
    
      {/*Innner Border*/}
      <rect x="236.5" y="247"
            width="40" height="40"
            rx="5" fill="#2f2f2f" class="inner border"/>
      
      {/*Inner Fill*/}
      <rect x="236.5" y="247"
            width="40" height="40"
            rx="5" fill="#2f2f2f"/>
   
        <rect x="236.5" y="247"
              width="40" height="40"
              rx="5" fill="url(#DCS)"/>
     

      <text kerning="-2" x="256.5" y="267" fill="#fff" font-size="12">C</text>

  </g>

  <g class='  keycap' data-key="KeyV">

    {/*OuterFill*/}
    <rect x="284.5" y="244"
          width="52" height="52"
          rx="5" fill="#08090a"/>
    
      {/*Innner Border*/}
      <rect x="290.5" y="247"
            width="40" height="40"
            rx="5" fill="#2f2f2f" class="inner border"/>
      
      {/*Inner Fill*/}
      <rect x="290.5" y="247"
            width="40" height="40"
            rx="5" fill="#2f2f2f"/>
      
        <rect x="290.5" y="247"
              width="40" height="40"
              rx="5" fill="url(#DCS)"/>
     
      <text kerning="-2" x="310.5" y="267" fill="#fff" font-size="12">V</text>

  </g>

  <g class='  keycap' data-key="KeyB">

    {/*OuterFill*/}
    <rect x="338.5" y="244"
          width="52" height="52"
          rx="5" fill="#08090a"/>
    
      {/*Innner Border*/}
      <rect x="344.5" y="247"
            width="40" height="40"
            rx="5" fill="#2f2f2f" class="inner border"/>
      
      {/*Inner Fill*/}
      <rect x="344.5" y="247"
            width="40" height="40"
            rx="5" fill="#2f2f2f"/>
    
        <rect x="344.5" y="247"
              width="40" height="40"
              rx="5" fill="url(#DCS)"/>
     

      <text kerning="-2" x="364.5" y="267" fill="#fff" font-size="12">B</text>

  </g>

  <g class='  keycap' data-key="KeyN">

    {/*OuterFill*/}
    <rect x="392.5" y="244"
          width="52" height="52"
          rx="5" fill="#08090a"/>
    
      {/*Innner Border*/}
      <rect x="398.5" y="247"
            width="40" height="40"
            rx="5" fill="#2f2f2f" class="inner border"/>
      
      {/*Inner Fill*/}
      <rect x="398.5" y="247"
            width="40" height="40"
            rx="5" fill="#2f2f2f"/>
  
        <rect x="398.5" y="247"
              width="40" height="40"
              rx="5" fill="url(#DCS)"/>
   
      <text kerning="-2" x="418.5" y="267" fill="#fff" font-size="12">N</text>

  </g>

  <g class='  keycap' data-key="KeyM">

    {/*OuterFill*/}
    <rect x="446.5" y="244"
          width="52" height="52"
          rx="5" fill="#08090a"/>
 
      {/*Innner Border*/}
      <rect x="452.5" y="247"
            width="40" height="40"
            rx="5" fill="#2f2f2f" class="inner border"/>
      
      {/*Inner Fill*/}
      <rect x="452.5" y="247"
            width="40" height="40"
            rx="5" fill="#2f2f2f"/>
   
        <rect x="452.5" y="247"
              width="40" height="40"
              rx="5" fill="url(#DCS)"/>
     
      <text kerning="-2" x="472.5" y="267" fill="#fff" font-size="12">M</text>

  </g>

  <g class='  keycap' data-key="Comma">

    {/*OuterFill*/}
    <rect x="500.5" y="244"
          width="52" height="52"
          rx="5" fill="#08090a"/>

      {/*Innner Border*/}
      <rect x="506.5" y="247"
            width="40" height="40"
            rx="5" fill="#2f2f2f" class="inner border"/>
      
      {/*Inner Fill*/}
      <rect x="506.5" y="247"
            width="40" height="40"
            rx="5" fill="#2f2f2f"/>
  
        <rect x="506.5" y="247"
              width="40" height="40"
              rx="5" fill="url(#DCS)"/>
     

      <text kerning="-2" x="526.5" y="267" fill="#fff" font-size="12">,</text>

  </g>

  <g class='  keycap' data-key="Period">

    {/*OuterFill*/}
    <rect x="554.5" y="244"
          width="52" height="52"
          rx="5" fill="#08090a"/>

      {/*Innner Border*/}
      <rect x="560.5" y="247"
            width="40" height="40"
            rx="5" fill="#2f2f2f" class="inner border"/>
      
      {/*Inner Fill*/}
      <rect x="560.5" y="247"
            width="40" height="40"
            rx="5" fill="#2f2f2f"/>
 
        <rect x="560.5" y="247"
              width="40" height="40"
              rx="5" fill="url(#DCS)"/>
     

      <text kerning="-2" x="580.5" y="267" fill="#fff" font-size="12">.</text>

  </g>

  <g class='  keycap' data-key="Slash">

    {/*OuterFill*/}
    <rect x="608.5" y="244"
          width="52" height="52"
          rx="5" fill="#08090a"/>
 
      {/*Innner Border*/}
      <rect x="614.5" y="247"
            width="40" height="40"
            rx="5" fill="#2f2f2f" class="inner border"/>
      
      {/*Inner Fill*/}
      <rect x="614.5" y="247"
            width="40" height="40"
            rx="5" fill="#2f2f2f"/>

        <rect x="614.5" y="247"
              width="40" height="40"
              rx="5" fill="url(#DCS)"/>
     

      <text kerning="-2" x="634.5" y="267" fill="#fff" font-size="12">/</text>

  </g>

  <g class='  keycap' data-key="ShiftRight">

    {/*OuterFill*/}
    <rect x="662.5" y="244"
          width="146.5" height="52"
          rx="5" fill="#08090a"/>

      {/*Innner Border*/}
      <rect x="668.5" y="247"
            width="134.5" height="40"
            rx="5" fill="#2f2f2f" class="inner border"/>
      
      {/*Inner Fill*/}
      <rect x="668.5" y="247"
            width="134.5" height="40"
            rx="5" fill="#2f2f2f"/>

        <rect x="668.5" y="247"
              width="134.5" height="40"
              rx="5" fill="url(#DCS)"/>
     

      <text kerning="-2" x="688.5" y="267" fill="#fff" font-size="12">Shift</text>

  </g>

  <g class='  keycap' data-key="ControlLeft">

    {/*OuterFill*/}
    <rect x="1" y="298"
          width="65.5" height="52"
          rx="5" fill="#08090a"/>

      {/*Innner Border*/}
      <rect x="7" y="301"
            width="53.5" height="40"
            rx="5" fill="#2f2f2f" class="inner border"/>
      
      {/*Inner Fill*/}
      <rect x="7" y="301"
            width="53.5" height="40"
            rx="5" fill="#2f2f2f"/>
    
        <rect x="7" y="301"
              width="53.5" height="40"
              rx="5" fill="url(#DCS)"/>
     

      <text kerning="-2" x="33.5" y="321" fill="#fff" font-size="12">Ctrl</text>

  </g>

  <g class='  keycap' data-key="AltLeft">

    {/*OuterFill*/}
    <rect x="68.5" y="298"
          width="65.5" height="52"
          rx="5" fill="#08090a"/>
    
      {/*Innner Border*/}
      <rect x="74.5" y="301"
            width="53.5" height="40"
            rx="5" fill="#2f2f2f" class="inner border"/>
      
      {/*Inner Fill*/}
      <rect x="74.5" y="301"
            width="53.5" height="40"
            rx="5" fill="#2f2f2f"/>
      
        <rect x="74.5" y="301"
              width="53.5" height="40"
              rx="5" fill="url(#DCS)"/>
     
      <text kerning="-2" x="100.5" y="321" fill="#fff" font-size="12">Alt</text>

  </g>

  
  <g class='  keycap' data-key="SpaceBar">

    {/*OuterFill*/}
    <rect x="136" y="298"
          width="538" height="52"
          rx="5" fill="#08090a"/>
    
      {/*Innner Border*/}
      <rect x="139.5" y="301"
            width="530" height="40"
            rx="5" fill="#2f2f2f" class="inner border"/>
      
      {/*Inner Fill*/}
      <rect x="209.5" y="301"
            width="385" height="40"
            rx="5" fill="#2f2f2f"/>
      
        <rect x="209.5" y="301"
              width="323.5" height="40"
              rx="5" fill="url(#SPACE)"/>

  </g>

  <g class='  keycap' data-key="AltRight">

    {/*OuterFill*/}
    <rect x="676" y="298"
          width="65.5" height="52"
          rx="5" fill="#08090a"/>
    
      {/*Innner Border*/}
      <rect x="682" y="301"
            width="53.5" height="40"
            rx="5" fill="#2f2f2f" class="inner border"/>
      
      {/*Inner Fill*/}
      <rect x="682" y="301"
            width="53.5" height="40"
            rx="5" fill="#2f2f2f"/>
      
        <rect x="682" y="301"
              width="53.5" height="40"
              rx="5" fill="url(#DCS)"/>
     
      <text kerning="-2" x="708" y="321" fill="#fff" font-size="12">Alt</text>

  </g>

  <g class='  keycap' data-key="ControlRight">

    {/*OuterFill*/}
    <rect x="743.5" y="298"
          width="65.5" height="52"
          rx="5" fill="#08090a"/>

    {/*Innner Border*/}
      <rect x="749.5" y="301"
            width="53.5" height="40"
            rx="5" fill="#2f2f2f" class="inner border"/>
      
      {/*Inner Fill*/}
      <rect x="749.5" y="301"
            width="53.5" height="40"
            rx="5" fill="#2f2f2f"/>

        <rect x="749.5" y="301"
              width="53.5" height="40"
              rx="5" fill="url(#DCS)"/>

      <text kerning="-2" x="775" y="321" fill="#fff" font-size="12">Ctrl</text>
 
  </g>

      </g>
    </g>
</svg>
